# xmcd CD database file
#
# Track frame offsets:
#	150
#	73685
#	142465
#	182575
#	234532
#
# Disc length: 3995 seconds
#
# Revision: 0
# Processed by: cddbd v1.5.1PL0 Copyright (c) Steve Scherf et al.
# Submitted via: CDex 1.51
#
DISCID=4a0f9905
DTITLE=CONTE CANDOLI CARL FONTANA quintet - THE COMPLETE PHOENIX RECORDINGS  3 OF 6
DYEAR=2002
DGENRE=Jazz
TTITLE0=Straight No Chaser
TTITLE1=Bye Bye Blackbird
TTITLE2=Lover Man
TTITLE3=Everything I Love
TTITLE4=Stella by Starlight
EXTD=YEAR: 2002
EXTT0=
EXTT1=
EXTT2=
EXTT3=
EXTT4=
PLAYORDER=
